<?xml version="1.0" encoding="utf-8"?>
<!-- Generator: Adobe Illustrator 16.0.0, SVG Export Plug-In . SVG Version: 6.00 Build 0)  -->
<!DOCTYPE svg PUBLIC "-//W3C//DTD SVG 1.1//EN" "http://www.w3.org/Graphics/SVG/1.1/DTD/svg11.dtd">
<svg version="1.1" id="Layer_1" xmlns="http://www.w3.org/2000/svg" xmlns:xlink="http://www.w3.org/1999/xlink" x="0px" y="0px"
	 width="561.23px" height="290.184px" viewBox="0 0 561.23 290.184" enable-background="new 0 0 561.23 290.184"
	 xml:space="preserve">
<g>
	<g>
		<path fill="#B08883" d="M53.629,89.07c0.611,18.982,5.547,22.731,10.344,25.405c0,0-15.285,10.32-32.908,9.477
			c-10.258-0.494-18.312-0.938-24.375-5.188c-4.352-3.052-10.434,1.043-3.652,6.417c5.078,4.023,13.982,5.377,26.15,5.461
			c22.041,0.155,31.268-5.931,31.268-5.931l-18.451,39.312c0,0-1.719,4.061,1.258,5.775c2.965,1.715,5.467-3.117,5.467-3.117
			l18.605-36.667c0,0,1.092-3.432,2.186-3.586c1.1-0.158,8.287,11.976,25.797,12.638c8.289,0.312,12.668-3.901,12.668-3.901
			s-9.689,26.37,6.566,29.33c16.266,2.965,12.666-29.638,12.666-29.638s-1.402-2.812-2.648-0.317
			c-1.256,2.496-4.387,22.624-9.547,22.155c-5.156-0.468-4.373-18.254,0.318-24.494c4.689-6.24-2.352-8.114-5.158-6.24
			c-2.818,1.87-10.324,8.734-17.832,7.803c-7.498-0.939-22.201-11.703-20.32-20.125c1.875-8.427,13.129-12.641,20.947-17.318
			c0,0,25.646-14.283,37.494-30.742c11.84-16.463,15.787-31.655,15.926-44.456c0.148-12.803-7.188-21.525-15.221-21.104
			c-8.044,0.42-17.769,5.486-30.177,30.808C88.598,56.148,73.23,91.176,70.832,99.337c0,0-3.602,1.593-6.344,3.938
			c0,0-4.664-4.79-4.518-15.061c0.139-10.268,1.689-18.099,1.828-20.07c0.141-1.972-3.945-3.279-5.07-0.468
			C55.6,70.492,53.354,80.49,53.629,89.07z M96.195,56.711c3.521-8.021,18.33-36.721,22.555-41.078
			c4.232-4.364,19.883-19.982,20.723,6.469c0.844,26.443-20.014,44.593-27.627,52.189c-7.615,7.602-35.107,23.636-35.107,23.636
			C77.303,95.118,92.666,64.73,96.195,56.711z"/>
		<path fill="#B08883" d="M275.191,141.486l-20.018-6.007c0,0,1-10.729,2.152-14.731c1.139-4.005,4.287-14.302,4.713-17.165
			c0.426-2.859-1-5.724-4.146-3.434c0,0-8.725,26.172-16.164,33.04c0,0-6.723,1.146-7.434,2.003
			c-0.715,0.858-1.285,7.44-1.285,8.583c0,0-9.158,7.148-14.736,7.003c-5.584-0.14-5.721-2.567-6.293-4.433
			c-0.574-1.856-1.143-7.297-5.438-7.146c-4.289,0.137-12.299,13.585-16.588,15.018c0,0-1.717-0.146,0.287-6.44
			c1.994-6.291,1.139-11.155,1.139-11.155s-1.422-2.713-3.57-1.43c0,0-3.293,16.735-14.879,20.596c0,0,6.297-7.724,5.439-20.596
			c-0.859-12.874-7.154-13.589-8.582-13.441c-1.434,0.14-3.434,0.281-10.301,6.861c0,0-4.719,5.724-6.289,4.433
			c-1.574-1.287,0.717-23.454,0.717-23.454s17.307-28.18,12.727-32.185c-4.576-4-11.014,7.584-12.727,12.731
			c-1.721,5.146-6.289,18.099-11.307,21.594c-5.809,4.055-9.225,6.259-15.225,6.4c-4.146,0.096-9.111-2.165-10.535-3.028
			c-1.436-0.855-3.691,1.5-2.123,3.355c0,0,3.736,4.812,12.744,4.522c9.012-0.282,17.436-5.809,19.727-8.525
			c0,0-1.578,8.146-1.578,12.584c0,4.432-0.713,12.73,7.156,12.873c7.865,0.146,13.154-11.158,16.162-10.871
			c3.002,0.285,3.146,5.724,3.002,7.723c-0.143,2.006-2.438,15.572-7.732,20.575c0,0-6.688-1.282-16.305-15.025
			c0,0-1.848-4.4-4.57-0.684c0,0-4.146,15.877,3.006,22.025c7.15,6.147,16.881,3.86,21.311-1.285c0,0,8.723,4.146,15.877-6.578
			c0,0-0.43,5.293,5.43,5.147c5.865-0.146,14.74-10.729,17.021-15.164c0,0-1,12.587,11.156,11.73
			c12.158-0.857,18.018-8.438,18.018-8.438s-2.715,17.589,7.723,29.029c0,0,2.146,2.432,5.15,0c0,0,0.145-8.578,2-17.019
			c1.861-8.441,3.816-15.915,3.943-20.436l12.941,4.129l7.576,0.144C274.484,144.918,277.344,143.775,275.191,141.486z
			 M155.629,161.656c-7.104-0.269-7.924-10.72-8-12.024c-0.008-0.084-0.008-0.134-0.008-0.134
			c3.574,2.287,10.875,9.582,10.875,9.582C158.781,162.225,155.629,161.656,155.629,161.656z M246.566,151.86
			c-1.373,8.139-3.029,19.509-3.029,19.509c-5.713-10.251-4.15-29.153-4.15-29.153c0.949-4.229,10.096-2.801,10.096-2.801
			S247.941,143.718,246.566,151.86z M250.469,134.557l-3.596-0.426c0,0,4.016-7.078,6.764-14.688L250.469,134.557z"/>
		<path fill="#B08883" d="M298.799,170.853c-4.199-2.328-5.494-7.837-5.121-16.253c0.375-8.419,4.312-35.609,13.861-63.478
			c9.545-27.86,26.832-58.173,31.842-64.809c2.857-3.789,14.967-18.749,25.988-18.258c7.43,0.332,10.252,3.036,10.705,15.646
			c1.254,33.954-36.404,65.013-36.404,65.013c-3.449,8.415,4.07,5.224,4.07,5.224c23.217-17.415,38.955-46.148,41.811-68.783
			c2.854-22.64-12.738-24.858-17.027-24.964c-8.397-0.202-19.94-0.114-36.946,21.768c-25.022,32.209-44.091,92.348-46.021,135.541
			c-1.137,25.536,11.658,21.188,11.658,21.188C299.701,178.107,302.994,173.171,298.799,170.853z"/>
		<path fill="#B08883" d="M324.623,131.615c0,0-8.994,7.776-8.549,20.209c0.445,12.438,9.219,4.665,9.438,2.553c0,0-0.443,7,6.553,7
			c7.002,0,17.438-11.662,18.654-12.882c0,0-2.443,14.771,11.438,15.322c13.882,0.559,22.982-20.32,22.982-20.32
			s-2.662,22.764,2.338,31.094c0,0,1.553,4.33,6.33,4.551c4.775,0.221,3.332-4.44,1.771-4.551
			c-1.553-0.115-5.328-1.111-5.217-21.875c0.11-20.766,10.993-53.744,10.993-53.744s2.332-4.664-0.331-6.329
			c-2.666-1.667-4.332,1.665-5.224,4.326c-0.891,2.667-8.987,31.206-10.991,35.979c-1.998,4.776-11.769,25.097-23.207,24.648
			c0,0-7.441,0.666-3.996-15.209c0,0,1.11-4.771-4-2.997c0,0-18.429,18.43-22.099,16.435c-3.666-1.999,2.113-15.101,5-20.213
			c0,0,1.884-3.997,0-5.55c-1.887-1.555-4.442,0.889-5.664,2.665c-1.221,1.774-2.555,8.771-3.772,10.657
			c-1.226,1.891-3.558,7.773-5.555,6.557c-2-1.223,1.229-7.774,1.997-9.216c0.781-1.448,5.972-7.197,4.222-9.109
			C326.512,130.285,324.623,131.615,324.623,131.615z"/>
		<path fill="#B08883" d="M413.201,126.917c-8.299,2.667-11.103,9.474-13.031,12.142c-1.924,2.665-5.031,15.988,3.559,16.579
			c8.584,0.593,30.351-29.612,30.351-29.612c6.512-4.587,5.771,2.073,5.771,2.073s-4.297,17.62-0.299,18.358
			c6.541,1.213,22.068-21.91,22.068-21.91c6.067-3.257,5.317,3.552,5.317,3.552c-2.514,7.11-6.737,24.582,0.82,32.802
			c7.564,8.217,24.396,2.734,24.396,2.734s4.854-23.683,21.922-43.03c11.309-12.807,33.521-26.615,43.303-15.369
			c9.764,11.256-0.217,27.569-16.652,40.156c-16.434,12.582-43.84,23.571-43.84,23.571s-3.106,4.443-3.697,27.391
			c-0.594,22.949,5.185,36.72,11.398,54.929c6.221,18.211,17.027,34.793,17.027,34.793c1.774,5.922-3.111,3.702-3.111,3.702
			c-20.869-21.17-32.127-75.807-32.127-92.385c0-16.584,3.643-26.367,3.643-26.367s-13.94,4.181-24.188-2.645
			c-12.918-8.604-6.986-31.745-6.986-31.745s-8.541,15.991-19.725,16.111c-11.187,0.117-5.531-17.917-5.531-17.917
			c-18.877,29.215-29.217,26.933-29.217,26.933s-12.99,1.923-11.904-16.227c1.084-18.162,15.152-23.691,15.152-23.691
			C417.58,119.586,413.201,126.917,413.201,126.917z M500.444,160.231c0,0,25.032-10.548,37.024-20.762
			c11.996-10.218,21.381-22.087,14.871-30.083c-6.521-7.996-21.969,5.299-30.268,13.145
			C513.79,130.38,505.178,144.98,500.444,160.231z"/>
	</g>
	<g>
		<g>
			<g>
				<path fill="#B08883" d="M124.279,221.377c-0.162,0-0.333-0.111-0.407-0.265l-4.148-12.963h-0.118l-4.073,12.962
					c-0.077,0.153-0.249,0.265-0.409,0.265h-0.381c-0.195,0-0.386-0.147-0.435-0.335l-4.531-16.107
					c-0.045-0.157-0.026-0.301,0.053-0.407c0.081-0.106,0.217-0.167,0.384-0.167h1.002c0.202,0,0.392,0.177,0.437,0.335
					l3.332,12.414l4.096-12.725c0.043-0.126,0.172-0.262,0.407-0.262h0.432c0.184,0,0.358,0.112,0.407,0.262l4.076,12.725
					l3.352-12.414c0.045-0.158,0.232-0.335,0.431-0.335h1.008c0.166,0,0.302,0.06,0.382,0.166c0.08,0.105,0.098,0.25,0.053,0.408
					l-4.531,16.107c-0.048,0.188-0.238,0.335-0.431,0.335L124.279,221.377L124.279,221.377z"/>
			</g>
			<g>
				<path fill="#B08883" d="M144.607,221.137c-0.239,0-0.456-0.217-0.456-0.456v-15.863c0-0.238,0.217-0.456,0.456-0.456h0.955
					c0.244,0,0.458,0.214,0.458,0.456v15.863c0,0.243-0.214,0.456-0.458,0.456H144.607z"/>
			</g>
			<g>
				<path fill="#B08883" d="M175.152,221.377c-0.182,0-0.292-0.057-0.382-0.192l-10.857-13.537l-0.022,13.033
					c0,0.251-0.207,0.456-0.46,0.456h-0.836c-0.244,0-0.458-0.213-0.458-0.456v-16.127c0-0.237,0.206-0.431,0.458-0.431h0.357
					c0.179,0,0.294,0.056,0.384,0.188l10.666,13.277l0.045-12.771c0-0.256,0.202-0.456,0.46-0.456h0.836
					c0.239,0,0.456,0.218,0.456,0.456v16.127c0,0.234-0.209,0.434-0.456,0.434H175.152z"/>
			</g>
			<g>
				<path fill="#B08883" d="M192.387,221.137c-0.25,0-0.454-0.205-0.454-0.456v-15.863c0-0.251,0.204-0.456,0.454-0.456h9.443
					c0.25,0,0.454,0.205,0.454,0.456v0.693c0,0.251-0.204,0.456-0.454,0.456h-8.053l0.001,5.845l6.876-0.001
					c0.239,0,0.456,0.217,0.456,0.456v0.697c0,0.252-0.205,0.458-0.456,0.458h-6.877l0.001,6.112l8.052-0.001
					c0.25,0,0.454,0.203,0.454,0.453v0.693c0,0.251-0.204,0.456-0.454,0.456L192.387,221.137L192.387,221.137z"/>
			</g>
			<g>
				<path fill="#B08883" d="M246.609,221.137c-0.208,0-0.355-0.132-0.409-0.262l-1.773-3.953h-8.507l-1.747,3.953
					c-0.052,0.126-0.202,0.262-0.409,0.262h-0.961c-0.169,0-0.312-0.071-0.392-0.194c-0.079-0.123-0.084-0.278-0.016-0.431
					l7.287-16.127c0.088-0.176,0.222-0.262,0.407-0.262h0.24c0.185,0,0.318,0.086,0.409,0.262l7.238,16.127
					c0.068,0.151,0.062,0.309-0.018,0.431c-0.08,0.123-0.222,0.193-0.392,0.193L246.609,221.137L246.609,221.137z M236.593,215.436
					l7.19-0.001c-0.568-1.263-1.13-2.531-1.693-3.798c-0.601-1.354-1.203-2.71-1.81-4.062h-0.19L236.593,215.436z"/>
			</g>
			<g>
				<path fill="#B08883" d="M262.426,221.137c-0.233,0-0.431-0.209-0.431-0.456v-15.863c0-0.247,0.197-0.456,0.431-0.456h5.367
					c4.64,0,8.415,3.753,8.415,8.364c0,4.639-3.775,8.411-8.415,8.411H262.426z M263.817,219.486l3.761-0.001
					c3.937,0,6.687-2.778,6.687-6.759c0-3.966-2.75-6.734-6.687-6.734h-3.761V219.486z"/>
			</g>
			<g>
				<path fill="#B08883" d="M296.531,221.377c-0.162,0-0.333-0.111-0.407-0.265l-7.24-16.129c-0.069-0.149-0.063-0.306,0.017-0.428
					c0.078-0.124,0.222-0.194,0.392-0.194h0.961c0.209,0,0.356,0.134,0.409,0.265l5.965,13.418l6.062-13.418
					c0.051-0.127,0.222-0.265,0.408-0.265h0.959c0.17,0,0.313,0.071,0.394,0.196c0.077,0.123,0.083,0.278,0.014,0.427l-7.282,16.13
					c-0.086,0.165-0.24,0.264-0.412,0.264L296.531,221.377L296.531,221.377z"/>
			</g>
			<g>
				<path fill="#B08883" d="M325.697,221.377c-4.824,0-8.604-3.78-8.604-8.604c0-4.769,3.859-8.648,8.604-8.648
					c4.76,0,8.632,3.88,8.632,8.648C334.329,217.598,330.538,221.377,325.697,221.377z M325.697,205.797
					c-3.817,0-6.924,3.129-6.924,6.976c0,3.82,3.105,6.93,6.924,6.93c3.832,0,6.949-3.108,6.949-6.93
					C332.646,208.927,329.529,205.797,325.697,205.797z"/>
			</g>
			<g>
				<path fill="#B08883" d="M356.998,221.377c-4.77,0-8.648-3.86-8.648-8.604c0-4.769,3.879-8.648,8.648-8.648
					c2.208,0,3.998,0.687,5.801,2.227c0.2,0.199,0.209,0.483,0.023,0.675l-0.646,0.646c-0.09,0.112-0.182,0.167-0.279,0.167
					c-0.103,0-0.215-0.062-0.345-0.19c-0.946-0.821-2.507-1.802-4.577-1.802c-3.688,0-6.688,3.097-6.688,6.903
					c0,3.792,3,6.878,6.688,6.878c2.053,0,3.273-0.688,4.577-1.798c0.112-0.088,0.214-0.131,0.312-0.131
					c0.104,0,0.208,0.051,0.312,0.154l0.553,0.551c0.093,0.07,0.117,0.175,0.123,0.249c0.01,0.146-0.049,0.305-0.147,0.403
					C361.053,220.553,359.027,221.377,356.998,221.377z"/>
			</g>
			<g>
				<path fill="#B08883" d="M389.928,221.137c-0.209,0-0.357-0.136-0.406-0.262l-1.773-3.953h-8.51l-1.746,3.953
					c-0.053,0.126-0.203,0.262-0.411,0.262h-0.957c-0.17,0-0.313-0.071-0.394-0.195c-0.078-0.123-0.082-0.278-0.014-0.43
					l7.285-16.127c0.085-0.174,0.223-0.262,0.407-0.262h0.239c0.187,0,0.32,0.086,0.412,0.262l7.235,16.127
					c0.067,0.151,0.062,0.309-0.019,0.431c-0.08,0.123-0.221,0.193-0.392,0.193L389.928,221.137L389.928,221.137z M379.911,215.436
					l7.19-0.001c-0.607-1.347-1.207-2.7-1.807-4.052c-0.562-1.271-1.126-2.541-1.695-3.808h-0.191L379.911,215.436z"/>
			</g>
			<g>
				<path fill="#B08883" d="M407.781,221.137c-0.24,0-0.458-0.217-0.458-0.456v-14.715l-4.167,0.001c-0.253,0-0.46-0.205-0.46-0.456
					v-0.693c0-0.251,0.207-0.456,0.46-0.456h10.158c0.253,0,0.46,0.205,0.46,0.456v0.693c0,0.251-0.207,0.456-0.46,0.456h-4.166
					l0.001,14.714c0,0.239-0.22,0.456-0.46,0.456H407.781L407.781,221.137z"/>
			</g>
			<g>
				<path fill="#B08883" d="M428.678,221.137c-0.254,0-0.46-0.205-0.46-0.456v-15.863c0-0.251,0.206-0.456,0.46-0.456h9.441
					c0.25,0,0.454,0.205,0.454,0.456v0.693c0,0.251-0.204,0.456-0.454,0.456h-8.053l0.001,5.845l6.874-0.001
					c0.237,0,0.455,0.217,0.455,0.456v0.697c0,0.257-0.199,0.458-0.455,0.458h-6.875l0.001,6.112l8.052-0.001
					c0.25,0,0.454,0.203,0.454,0.453v0.693c0,0.251-0.204,0.456-0.454,0.456L428.678,221.137L428.678,221.137z"/>
			</g>
		</g>
	</g>
</g>
</svg>
